<svg width="939" height="557" viewBox="0 0 939 557" fill="none" xmlns="http://www.w3.org/2000/svg">
<path opacity="0.31" d="M1239.41 455.605L1267.15 591.423C1257.86 592.362 1248.62 593.276 1239.41 594.168M1239.41 455.605L1166.15 309.379M1239.41 455.605L1178.18 435.831M1239.41 455.605V594.168M1166.15 309.379L1112.24 217.793M1166.15 309.379L1069.33 281.8M1166.15 309.379L1046.31 187.091M1166.15 309.379L1178.18 435.831M1112.24 217.793L1032.7 140.257M1112.24 217.793L1046.31 187.091M1032.7 140.257L919.14 80.4138M1032.7 140.257L1046.31 187.091M919.14 80.4138L885.648 57.5173L768.948 17.9687M919.14 80.4138L791.974 57.5173M919.14 80.4138L768.948 17.9687M919.14 80.4138L928.56 153.787M919.14 80.4138L1046.31 187.091M768.948 17.9687L641.783 6M768.948 17.9687L791.974 57.5173M641.783 6L500.487 17.9687M641.783 6V65.3229M641.783 6L791.974 57.5173M641.783 6L485.311 57.5173M500.487 17.9687L393.207 57.5173L339.829 80.4138M500.487 17.9687L485.311 57.5173M500.487 17.9687L339.829 80.4138M339.829 80.4138L246.156 140.257M339.829 80.4138L485.311 57.5173M339.829 80.4138L221.56 187.091M339.829 80.4138L350.295 153.787M246.156 140.257L160.332 217.793M246.156 140.257L221.56 187.091M160.332 217.793L95.9638 309.379M160.332 217.793L221.56 187.091M95.9638 309.379L31.5959 455.605M95.9638 309.379L211.093 281.8M95.9638 309.379L221.56 187.091M95.9638 309.379L95.9638 447.8M31.5959 455.605L7 615.881C15.2427 616.08 23.4409 616.278 31.5959 616.474M31.5959 455.605L95.9638 447.8M31.5959 455.605L31.5959 616.474M95.9638 447.8L255.575 435.831M95.9638 447.8L211.093 281.8M95.9638 447.8L31.5959 616.474M95.9638 447.8L143.586 619.092M255.575 435.831L500.487 424.903M255.575 435.831L393.207 260.464M255.575 435.831L211.093 281.8M255.575 435.831L143.586 619.092M255.575 435.831L359.715 623.239M500.487 424.903L791.974 416.057M500.487 424.903L641.783 251.097M500.487 424.903L393.207 260.464M500.487 424.903L359.715 623.239M500.487 424.903L641.783 624.468M791.974 416.057L1032.7 424.903M791.974 416.057L885.648 260.464M791.974 416.057L641.783 251.097M791.974 416.057L641.783 624.468M791.974 416.057L944.734 615.881M1032.7 424.903L1178.18 435.831M1032.7 424.903L1069.33 281.8M1032.7 424.903L885.648 260.464M1032.7 424.903L944.734 615.881M1032.7 424.903L1146.26 602.52M1178.18 435.831L1069.33 281.8M1178.18 435.831L1146.26 602.52M1178.18 435.831L1239.41 594.168M1069.33 281.8L885.648 260.464M1069.33 281.8L928.56 153.787M1069.33 281.8L1046.31 187.091M885.648 260.464L641.783 251.097M885.648 260.464L742.783 130.89M885.648 260.464L928.56 153.787M641.783 251.097L393.207 260.464M641.783 251.097L534.503 130.89M641.783 251.097L742.783 130.89M393.207 260.464L211.093 281.8M393.207 260.464L350.295 153.787M393.207 260.464L534.503 130.89M211.093 281.8L221.56 187.091M211.093 281.8L350.295 153.787M221.56 187.091L350.295 153.787M350.295 153.787L534.503 130.89M350.295 153.787L485.311 57.5173M534.503 130.89L742.783 130.89M534.503 130.89L485.311 57.5173M534.503 130.89L641.783 65.3229M742.783 130.89L928.56 153.787M742.783 130.89L641.783 65.3229M742.783 130.89L791.974 57.5173M928.56 153.787L1046.31 187.091M928.56 153.787L791.974 57.5173M791.974 57.5173L641.783 65.3229M641.783 65.3229L485.311 57.5173M31.5959 616.474C69.8402 617.393 107.132 618.272 143.586 619.092M143.586 619.092C218.86 620.786 290.565 622.226 359.715 623.239M359.715 623.239C457.917 624.678 550.969 625.255 641.783 624.468M641.783 624.468C744.221 623.58 843.811 620.957 944.734 615.881M944.734 615.881C1010.94 612.551 1077.72 608.165 1146.26 602.52M1146.26 602.52C1176.92 599.994 1207.94 597.216 1239.41 594.168" stroke="white" stroke-width="11.2513"/>
</svg>
