<svg width="326" height="325" viewBox="0 0 326 325" fill="none" xmlns="http://www.w3.org/2000/svg">
<path d="M163 0.456909C73.3124 0.456909 0.553223 73.0353 0.553223 162.5C0.553223 251.965 73.3124 324.543 163 324.543C252.687 324.543 325.446 251.965 325.446 162.5C325.446 73.0353 252.687 0.456909 163 0.456909ZM154.536 257.972V190.752H111.238C105.216 190.752 101.146 184.257 104.076 178.899L163.976 62.4814C167.72 54.8501 179.277 57.6104 179.277 66.2159V134.248H220.621C226.644 134.248 230.55 140.58 227.946 145.938L169.999 261.544C166.093 269.338 154.536 266.578 154.536 257.972Z" fill="#EFEFEF"/>
</svg>
